if (_typeface_js && _typeface_js.loadFace) _typeface_js.loadFace({"glyphs":{"ο":{"x_min":0,"x_max":698,"ha":799,"o":"m 349 -25 q 94 88 189 -25 q 0 368 0 201 q 91 642 0 533 q 349 761 189 761 q 605 644 507 761 q 698 368 698 533 q 606 91 698 201 q 349 -25 510 -25 m 349 84 q 517 174 455 84 q 571 369 571 255 q 518 562 571 484 q 349 651 457 651 q 185 561 244 651 q 132 369 132 481 q 183 177 132 256 q 349 84 244 84 "},"S":{"x_min":0,"x_max":772,"ha":873,"o":"m 772 292 q 649 54 772 144 q 389 -26 539 -26 q 114 68 221 -26 q 0 338 0 168 l 128 338 q 195 153 128 221 q 376 85 263 85 q 545 129 469 85 q 637 271 637 183 q 480 429 637 379 q 190 514 334 471 q 33 740 33 585 q 140 965 33 882 q 381 1042 238 1042 q 631 958 531 1042 q 740 717 740 868 l 612 717 q 549 875 612 817 q 387 934 487 934 q 238 892 303 934 q 161 760 161 842 q 318 610 161 657 q 612 526 465 568 q 772 292 772 454 "},"¦":{"x_min":336,"x_max":439,"ha":775,"o":"m 439 462 l 336 462 l 336 986 l 439 986 l 439 462 m 439 -242 l 336 -242 l 336 280 l 439 280 l 439 -242 "},"/":{"x_min":179.671875,"x_max":596.171875,"ha":776,"o":"m 596 1042 l 261 -129 l 179 -129 l 510 1042 l 596 1042 "},"Τ":{"x_min":0,"x_max":762,"ha":822,"o":"m 762 893 l 449 893 l 449 0 l 313 0 l 313 891 l 0 891 l 0 1012 l 762 1012 l 762 893 "},"y":{"x_min":-0.28125,"x_max":670.75,"ha":755,"o":"m 670 738 l 380 -83 q 304 -216 349 -167 q 169 -279 247 -279 q 95 -266 130 -279 l 95 -148 q 129 -155 107 -151 q 164 -160 152 -160 q 235 -114 209 -160 q 269 -26 243 -98 l 0 738 l 134 738 l 334 140 l 537 738 l 670 738 "},"Π":{"x_min":0,"x_max":787,"ha":899,"o":"m 787 0 l 654 0 l 654 886 l 137 886 l 137 0 l 0 0 l 0 1012 l 787 1012 l 787 0 "},"ΐ":{"x_min":-109,"x_max":332,"ha":354,"o":"m 332 800 l 224 800 l 224 925 l 332 925 l 332 800 m -1 800 l -109 800 l -109 925 l -1 925 l -1 800 m 277 3 q 227 -10 252 -5 q 177 -15 202 -15 q 82 26 116 -15 q 40 200 40 79 l 40 738 l 163 738 l 163 215 q 167 142 163 157 q 220 102 178 102 q 242 103 233 102 q 277 113 251 104 l 277 3 m 296 1040 l 111 820 l 29 820 l 161 1040 l 296 1040 "},"g":{"x_min":0,"x_max":672,"ha":820,"o":"m 672 34 q 574 -213 672 -121 q 324 -306 477 -306 q 128 -253 212 -306 q 31 -85 31 -190 l 152 -85 q 224 -175 163 -139 q 338 -207 278 -207 q 504 -109 446 -207 q 553 88 553 -28 q 452 5 511 35 q 329 -24 394 -24 q 87 99 180 -24 q 0 370 0 214 q 85 634 0 521 q 323 758 179 758 q 447 728 390 758 q 552 643 504 699 l 552 737 l 672 737 l 672 34 m 570 367 q 518 560 570 481 q 351 652 458 652 q 185 561 244 652 q 132 368 132 482 q 185 175 132 254 q 353 84 246 84 q 518 175 458 84 q 570 367 570 254 "},"²":{"x_min":0,"x_max":433,"ha":528,"o":"m 433 382 l 0 382 q 90 565 0 491 q 255 667 173 616 q 347 797 347 726 q 309 874 347 844 q 223 904 272 904 q 133 868 170 904 q 97 761 97 833 l 14 761 q 80 921 14 863 q 227 973 139 973 q 371 925 310 973 q 433 796 433 877 q 344 634 433 703 q 179 538 314 610 q 90 454 90 490 l 433 454 l 433 382 "},"–":{"x_min":0,"x_max":691,"ha":786,"o":"m 691 335 l 0 335 l 0 411 l 691 411 l 691 335 "},"Κ":{"x_min":0,"x_max":802.953125,"ha":875,"o":"m 802 0 l 636 0 l 288 509 l 136 356 l 136 0 l 0 0 l 0 1012 l 136 1012 l 136 526 l 613 1012 l 793 1012 l 387 599 l 802 0 "},"ƒ":{"x_min":-44.53125,"x_max":384,"ha":502,"o":"m 384 651 l 255 651 l 77 -279 l -44 -279 l 132 651 l 14 651 l 14 751 l 132 751 q 148 948 132 901 q 298 1040 181 1040 q 327 1040 313 1040 q 384 1034 341 1040 l 384 922 q 331 932 352 932 q 265 884 282 932 q 255 794 255 854 l 255 751 l 384 751 l 384 651 "},"e":{"x_min":0,"x_max":699.140625,"ha":796,"o":"m 699 327 l 137 327 q 196 157 137 228 q 352 86 255 86 q 478 130 422 86 q 549 246 534 175 l 682 246 q 565 48 656 123 q 350 -26 474 -26 q 95 85 191 -26 q 0 363 0 197 q 92 642 0 529 q 350 765 191 765 q 613 627 518 765 q 699 327 699 504 m 564 430 q 497 583 553 522 q 347 650 436 650 q 202 583 260 650 q 137 430 149 522 l 564 430 "},"ό":{"x_min":0,"x_max":698,"ha":799,"o":"m 349 -25 q 92 91 190 -25 q 0 368 0 202 q 91 642 0 533 q 349 761 189 761 q 605 644 507 761 q 698 368 698 533 q 606 91 698 201 q 349 -25 510 -25 m 349 84 q 517 174 455 84 q 571 369 571 255 q 518 562 571 484 q 349 651 457 651 q 185 561 244 651 q 132 369 132 481 q 183 177 132 256 q 349 84 244 84 m 564 1040 l 379 819 l 297 819 l 429 1040 l 564 1040 "},"J":{"x_min":0,"x_max":576,"ha":685,"o":"m 576 278 q 282 -27 576 -27 q 57 72 124 -27 q 0 327 0 157 l 131 327 q 158 171 131 226 q 283 95 194 95 q 418 170 384 95 q 440 335 440 218 l 440 1012 l 576 1012 l 576 278 "},"»":{"x_min":0,"x_max":494,"ha":589,"o":"m 494 302 l 276 137 l 276 256 l 420 372 l 276 486 l 276 608 l 494 440 l 494 302 m 218 302 l 0 137 l 0 256 l 143 372 l 0 486 l 0 608 l 218 440 l 218 302 "},"©":{"x_min":-3,"x_max":988,"ha":1083,"o":"m 492 -7 q 120 151 258 -7 q -3 501 -3 294 q 120 851 -3 706 q 492 1011 258 1011 q 864 851 725 1011 q 988 501 988 708 q 865 151 988 292 q 492 -7 729 -7 m 492 60 q 813 197 695 60 q 921 501 921 322 q 814 805 921 681 q 492 944 695 944 q 171 805 291 944 q 64 501 64 680 q 170 197 64 320 q 492 60 288 60 m 726 394 q 648 246 716 302 q 486 190 579 190 q 288 285 361 190 q 223 496 223 370 q 289 713 223 624 q 489 812 363 812 q 643 761 576 812 q 718 624 709 710 l 621 624 q 577 703 616 673 q 488 734 538 734 q 368 665 411 734 q 326 503 326 596 q 366 339 326 407 q 479 272 406 272 q 577 304 538 272 q 625 394 616 337 l 726 394 "},"ώ":{"x_min":0,"x_max":904,"ha":1010,"o":"m 673 1040 l 488 820 l 406 820 l 538 1040 l 673 1040 m 904 339 q 839 97 904 203 q 637 -26 765 -26 q 527 9 575 -26 q 451 103 479 44 q 379 12 427 46 q 272 -21 332 -21 q 68 97 144 -21 q 0 339 0 203 q 44 552 0 445 q 157 737 82 643 l 296 737 q 171 553 214 647 q 121 336 121 446 q 152 179 121 249 q 269 88 193 88 q 367 163 334 88 q 392 295 392 220 l 392 573 l 513 573 l 513 295 q 549 135 513 192 q 630 88 579 88 q 746 182 704 88 q 781 342 781 257 q 730 556 781 450 q 606 737 691 638 l 745 737 q 857 551 819 640 q 904 339 904 444 "},"^":{"x_min":189.1875,"x_max":586.640625,"ha":776,"o":"m 586 772 l 504 772 l 387 930 l 272 772 l 189 772 l 319 1012 l 453 1012 l 586 772 "},"«":{"x_min":0,"x_max":497,"ha":592,"o":"m 497 137 l 278 302 l 278 440 l 497 608 l 497 486 l 352 372 l 497 256 l 497 137 m 218 137 l 0 302 l 0 440 l 218 608 l 218 486 l 73 372 l 218 256 l 218 137 "},"D":{"x_min":0,"x_max":811,"ha":916,"o":"m 381 1012 q 699 866 581 1012 q 811 520 811 728 q 698 160 811 308 q 374 -1 575 -1 l 0 -1 l 0 1012 l 381 1012 m 368 123 q 594 246 513 123 q 667 509 667 354 q 594 770 667 661 q 368 895 511 895 l 136 895 l 136 123 l 368 123 "},"∙":{"x_min":0,"x_max":139,"ha":234,"o":"m 139 585 l 0 585 l 0 738 l 139 738 l 139 585 "},"ÿ":{"x_min":0.28125,"x_max":46,"ha":122,"o":"m 46 2 q 36 -7 46 -7 q 27 0 29 -7 q 37 -4 30 -4 q 43 2 43 -1 l 36 0 q 27 9 27 0 q 36 19 27 19 l 43 15 l 46 19 l 46 2 m 36 1 q 43 9 43 1 q 36 17 43 17 q 29 9 29 17 q 36 1 29 1 m 25 0 l 23 21 l 13 0 l 3 21 l 3 0 l 0 24 l 13 3 l 21 24 l 25 0 "},"w":{"x_min":0,"x_max":989.53125,"ha":1078,"o":"m 989 737 l 767 0 l 645 0 l 491 566 l 338 0 l 217 0 l 0 737 l 127 737 l 279 173 l 423 737 l 564 737 l 706 173 l 862 737 l 989 737 "},"$":{"x_min":0,"x_max":686,"ha":777,"o":"m 650 718 l 530 718 q 480 825 519 786 q 373 872 440 865 l 373 551 q 607 446 529 522 q 686 241 686 371 q 605 45 686 116 q 373 -25 525 -25 l 373 -151 l 301 -151 l 301 -24 q 79 62 159 -24 q 0 298 0 149 l 121 298 q 165 147 121 204 q 301 80 210 89 l 301 442 q 79 536 145 469 q 12 725 12 603 q 94 910 12 839 q 301 982 177 982 l 301 1077 l 373 1077 l 373 982 q 562 918 484 982 q 650 718 650 845 m 301 565 l 301 872 q 183 832 228 872 q 139 725 139 791 q 176 618 139 657 q 301 565 213 580 m 373 76 q 551 237 551 97 q 506 362 551 314 q 373 424 462 410 l 373 76 "},"\\":{"x_min":0,"x_max":416.5,"ha":512,"o":"m 416 -129 l 330 -129 l 0 1042 l 81 1042 l 416 -129 "},"µ":{"x_min":0,"x_max":683.21875,"ha":732,"o":"m 683 -4 q 616 -14 645 -14 q 488 97 503 -14 q 414 8 461 41 q 307 -24 367 -24 q 203 3 253 -24 q 117 80 153 31 l 117 -278 l 0 -278 l 0 737 l 121 737 l 121 343 q 161 172 121 245 q 302 82 212 82 q 443 177 394 82 q 483 358 483 254 l 483 737 l 604 737 l 604 214 q 610 136 604 159 q 660 92 624 92 q 683 96 670 92 l 683 -4 "},"Ι":{"x_min":41,"x_max":177,"ha":291,"o":"m 177 0 l 41 0 l 41 1012 l 177 1012 l 177 0 "},"Ύ":{"x_min":-0.328125,"x_max":1120.75,"ha":1189,"o":"m 1120 1012 l 790 416 l 790 0 l 653 0 l 653 416 l 318 1012 l 455 1012 l 720 533 l 983 1012 l 1120 1012 m 271 1040 l 81 800 l 0 800 l 137 1040 l 271 1040 "},"’":{"x_min":0,"x_max":136,"ha":231,"o":"m 136 851 q 99 737 136 784 q 0 670 63 691 l 0 734 q 58 787 42 741 q 71 872 71 820 l 0 872 l 0 1012 l 136 1012 l 136 851 "},"Ν":{"x_min":0,"x_max":785,"ha":897,"o":"m 785 0 l 637 0 l 128 821 l 128 0 l 0 0 l 0 1012 l 148 1012 l 657 191 l 657 1012 l 785 1012 l 785 0 "},"-":{"x_min":10,"x_max":345,"ha":469,"o":"m 345 317 l 10 317 l 10 428 l 345 428 l 345 317 "},"Q":{"x_min":0,"x_max":948,"ha":1050,"o":"m 934 6 l 869 -78 l 729 36 q 609 -11 673 3 q 473 -26 545 -26 q 125 130 257 -26 q 0 504 0 279 q 125 880 0 729 q 474 1042 257 1042 q 824 885 693 1042 q 948 508 948 736 q 914 294 948 399 q 816 106 881 189 l 934 6 m 708 192 q 786 331 762 249 q 811 500 811 413 q 729 791 811 674 q 473 923 636 923 q 223 792 315 923 q 139 506 139 674 q 223 221 139 338 q 477 91 317 91 q 620 124 555 91 l 510 216 l 575 302 l 708 192 "},"ς":{"x_min":1,"x_max":662.46875,"ha":725,"o":"m 662 461 l 539 461 q 487 595 531 547 q 357 651 438 651 q 195 578 258 651 q 133 401 133 505 q 260 179 133 241 q 497 106 378 142 q 627 -50 627 62 q 612 -158 627 -105 q 570 -278 598 -211 l 455 -278 q 487 -182 479 -211 q 504 -80 504 -126 q 373 12 504 -15 q 131 91 192 51 q 1 388 1 179 q 98 651 1 542 q 346 761 195 761 q 575 680 488 761 q 662 461 662 599 "},"M":{"x_min":0,"x_max":935,"ha":1045,"o":"m 935 0 l 803 0 l 803 867 l 526 0 l 397 0 l 125 864 l 125 0 l 0 0 l 0 1012 l 195 1012 l 462 158 l 743 1012 l 935 1012 l 935 0 "},"Ψ":{"x_min":0,"x_max":986,"ha":1073,"o":"m 986 677 q 896 319 986 429 q 560 200 797 200 l 560 0 l 425 0 l 425 200 q 91 319 190 200 q 0 677 0 429 l 0 1012 l 136 1012 l 136 678 q 187 417 136 492 q 425 326 250 326 l 425 1012 l 560 1012 l 560 326 l 569 326 q 797 423 732 326 q 851 678 851 502 l 851 1012 l 986 1012 l 986 677 "},"C":{"x_min":0,"x_max":869,"ha":926,"o":"m 869 379 q 745 87 869 201 q 446 -26 622 -26 q 110 136 231 -26 q 0 510 0 283 q 115 883 0 738 q 459 1042 240 1042 q 733 955 617 1042 q 861 709 861 860 l 731 709 q 636 863 710 806 q 464 921 562 921 q 214 791 306 921 q 133 509 133 676 q 213 229 133 344 q 461 99 304 99 q 658 179 579 99 q 738 379 738 259 l 869 379 "},"!":{"x_min":0,"x_max":136,"ha":231,"o":"m 136 684 q 114 409 136 628 q 104 244 104 299 l 33 244 q 16 464 33 313 q 0 684 0 616 l 0 1012 l 136 1012 l 136 684 m 136 0 l 0 0 l 0 151 l 136 151 l 136 0 "},"{":{"x_min":0,"x_max":471,"ha":566,"o":"m 471 -286 q 232 -213 297 -286 q 183 -45 183 -159 q 188 48 183 -15 q 194 141 194 112 q 158 263 194 225 q 0 314 113 314 l 0 417 q 159 471 116 417 q 193 605 193 514 q 193 665 193 644 q 193 772 193 769 q 240 941 193 887 q 471 1015 304 1015 l 471 915 q 329 866 367 915 q 303 742 303 829 q 303 662 303 718 q 303 577 303 607 q 280 453 303 500 q 172 365 251 391 q 283 275 253 337 q 306 143 306 226 q 306 84 306 106 q 306 -11 306 -5 q 333 -131 306 -94 q 471 -182 370 -182 l 471 -286 "},"X":{"x_min":0,"x_max":837.078125,"ha":921,"o":"m 837 0 l 669 0 l 415 409 l 163 0 l 0 0 l 340 519 l 17 1012 l 182 1012 l 419 637 l 661 1012 l 819 1012 l 494 520 l 837 0 "},"#":{"x_min":0,"x_max":944.609375,"ha":1040,"o":"m 944 691 l 909 591 l 705 591 l 642 410 l 858 410 l 823 310 l 605 310 l 498 -2 l 386 -2 l 495 310 l 322 310 l 210 -2 l 100 -2 l 208 310 l 0 310 l 35 410 l 243 410 l 306 591 l 84 591 l 118 691 l 341 691 l 450 1006 l 562 1006 l 454 691 l 628 691 l 736 1006 l 847 1006 l 740 691 l 944 691 m 594 591 l 416 591 l 355 410 l 532 410 l 594 591 "},"ι":{"x_min":41,"x_max":278.34375,"ha":355,"o":"m 278 3 q 228 -10 253 -5 q 178 -15 203 -15 q 83 26 117 -15 q 41 200 41 79 l 41 738 l 164 738 l 164 215 q 168 142 164 157 q 222 102 179 102 q 243 103 234 102 q 278 113 252 104 l 278 3 "},"Ά":{"x_min":0,"x_max":888.8125,"ha":962,"o":"m 277 1039 l 87 800 l 5 800 l 142 1039 l 277 1039 m 888 0 l 741 0 l 637 302 l 246 302 l 140 0 l 0 0 l 368 1012 l 518 1012 l 888 0 m 597 420 l 443 866 l 287 420 l 597 420 "},")":{"x_min":-0.1875,"x_max":312,"ha":407,"o":"m 312 365 q 252 25 312 191 q 85 -290 193 -141 l 0 -290 q 137 21 91 -128 q 189 360 189 189 q 138 704 189 537 q 0 1024 95 850 l 85 1024 q 252 706 193 871 q 312 365 312 542 "},"ε":{"x_min":0,"x_max":622.53125,"ha":700,"o":"m 622 235 q 517 38 622 111 q 294 -25 425 -25 q 96 29 179 -25 q 0 204 0 93 q 36 313 0 265 q 127 390 66 352 q 56 459 82 419 q 26 555 26 505 q 113 712 26 654 q 290 763 188 763 q 490 700 408 763 q 579 515 579 632 l 469 515 q 411 618 455 580 q 302 657 367 657 q 204 630 249 657 q 149 547 149 598 q 234 446 149 469 q 382 435 274 435 l 382 332 l 342 332 q 203 315 250 332 q 123 210 123 287 q 180 108 123 145 q 297 76 229 76 q 427 117 371 76 q 499 235 483 159 l 622 235 "},"Δ":{"x_min":0,"x_max":933.71875,"ha":1007,"o":"m 933 -1 l 0 -1 l 392 1012 l 540 1012 l 933 -1 m 747 123 l 466 866 l 183 123 l 747 123 "},"}":{"x_min":0,"x_max":471,"ha":566,"o":"m 471 314 q 311 262 356 314 q 276 136 276 222 q 278 65 276 97 q 288 -58 288 -48 q 237 -217 288 -166 q 0 -286 171 -286 l 0 -182 q 138 -130 103 -182 q 164 -2 164 -93 q 164 81 164 22 q 164 144 164 140 q 186 275 164 229 q 299 365 215 339 q 187 455 218 391 q 163 589 163 505 q 163 681 163 625 q 163 743 163 737 q 136 865 163 827 q 0 915 100 915 l 0 1015 q 237 942 172 1015 q 286 773 286 888 q 281 675 286 741 q 276 590 276 608 q 311 466 276 505 q 471 417 356 417 l 471 314 "},"‰":{"x_min":-3,"x_max":1638,"ha":1784,"o":"m 828 0 q 650 76 717 0 q 591 244 591 145 q 649 412 591 344 q 829 489 714 489 q 1007 412 940 489 q 1067 244 1067 343 q 1008 76 1067 144 q 828 0 943 0 m 827 103 q 926 143 891 103 q 961 243 961 184 q 928 340 961 301 q 827 385 891 385 q 730 342 766 385 q 694 243 694 300 q 726 147 694 186 q 827 103 764 103 m 871 986 l 278 -26 l 195 -26 l 788 986 l 871 986 m 236 468 q 56 545 123 468 q -3 714 -3 615 q 55 881 -3 813 q 233 958 122 958 q 413 881 346 958 q 473 712 473 813 q 414 544 473 612 q 236 468 349 468 m 236 855 q 134 811 171 855 q 98 710 98 768 q 133 612 98 653 q 235 572 168 572 q 337 614 300 572 q 374 713 374 656 q 340 810 374 771 q 236 855 301 855 m 1399 0 q 1221 76 1288 0 q 1162 244 1162 145 q 1220 412 1162 344 q 1400 489 1285 489 q 1578 412 1511 489 q 1638 244 1638 343 q 1579 76 1638 144 q 1399 0 1514 0 m 1398 103 q 1497 143 1462 103 q 1532 243 1532 184 q 1499 340 1532 301 q 1398 385 1462 385 q 1301 342 1337 385 q 1265 243 1265 300 q 1297 147 1265 186 q 1398 103 1335 103 "},"a":{"x_min":0,"x_max":685,"ha":779,"o":"m 685 0 q 648 -12 665 -7 q 602 -17 630 -17 q 525 12 552 -17 q 489 95 497 41 q 375 6 446 37 q 231 -25 305 -25 q 63 31 127 -25 q 0 194 0 88 q 115 390 0 334 q 321 436 176 420 q 477 483 466 451 q 484 523 484 504 q 432 619 484 584 q 318 654 380 654 q 204 617 251 654 q 149 514 157 580 l 32 514 q 120 705 32 633 q 324 772 202 772 q 516 712 439 772 q 604 532 604 645 l 604 163 q 611 108 604 126 q 650 90 619 90 l 685 94 l 685 0 m 480 262 l 480 372 q 266 329 342 347 q 125 201 125 294 q 163 113 125 144 q 258 83 201 83 q 405 130 338 83 q 480 262 480 183 "},"—":{"x_min":0,"x_max":923,"ha":1018,"o":"m 923 335 l 0 335 l 0 411 l 923 411 l 923 335 "},"=":{"x_min":10,"x_max":767,"ha":777,"o":"m 767 510 l 10 510 l 10 606 l 767 606 l 767 510 m 767 235 l 10 235 l 10 332 l 767 332 l 767 235 "},"N":{"x_min":0,"x_max":785,"ha":895,"o":"m 785 0 l 637 0 l 128 821 l 128 0 l 0 0 l 0 1012 l 148 1012 l 657 191 l 657 1012 l 785 1012 l 785 0 "},"ρ":{"x_min":0,"x_max":698,"ha":781,"o":"m 698 368 q 608 93 698 206 q 355 -27 511 -27 q 225 1 287 -27 q 117 82 164 29 l 117 -278 l 0 -278 l 0 361 q 89 642 0 531 q 348 763 186 763 q 605 646 507 763 q 698 368 698 535 m 571 366 q 519 559 571 480 q 352 651 459 651 q 186 562 247 651 q 131 370 131 482 q 185 175 131 256 q 352 84 244 84 q 518 174 457 84 q 571 366 571 253 "},"2":{"x_min":59,"x_max":718,"ha":777,"o":"m 718 0 l 59 0 q 195 313 59 188 q 449 487 196 314 q 587 691 587 580 q 533 819 587 772 q 404 867 479 867 q 268 811 323 867 q 206 630 206 747 l 81 630 q 180 901 81 805 q 402 986 267 986 q 618 909 527 986 q 718 694 718 826 q 602 449 718 541 q 372 316 486 382 q 197 122 231 234 l 718 122 l 718 0 "},"¯":{"x_min":0,"x_max":923,"ha":919,"o":"m 923 1033 l 0 1033 l 0 1109 l 923 1109 l 923 1033 "},"Z":{"x_min":0,"x_max":764,"ha":832,"o":"m 764 -1 l 0 -1 l 0 113 l 608 895 l 40 895 l 40 1012 l 764 1012 l 764 886 l 167 123 l 764 123 l 764 -1 "},"u":{"x_min":0,"x_max":604,"ha":714,"o":"m 604 0 l 488 0 l 488 109 q 383 10 450 45 q 240 -25 315 -25 q 59 58 125 -25 q 0 258 0 136 l 0 737 l 123 737 l 123 284 q 154 148 123 202 q 268 82 193 82 q 424 165 362 82 q 483 340 483 242 l 483 737 l 604 737 l 604 0 "},"k":{"x_min":0,"x_max":599.828125,"ha":683,"o":"m 599 739 l 331 465 l 595 0 l 459 0 l 245 382 l 118 251 l 118 0 l 0 0 l 0 1012 l 118 1012 l 118 402 l 447 739 l 599 739 "},"Η":{"x_min":0,"x_max":787,"ha":899,"o":"m 787 0 l 654 0 l 654 475 l 137 475 l 137 0 l 0 0 l 0 1012 l 137 1012 l 137 599 l 654 599 l 654 1012 l 787 1012 l 787 0 "},"Α":{"x_min":0,"x_max":888.8125,"ha":965,"o":"m 888 0 l 741 0 l 637 302 l 246 302 l 140 0 l 0 0 l 368 1012 l 518 1012 l 888 0 m 597 420 l 443 866 l 287 420 l 597 420 "},"s":{"x_min":0,"x_max":592,"ha":683,"o":"m 592 217 q 491 36 592 104 q 287 -23 402 -23 q 84 43 163 -23 q 0 238 0 114 l 118 238 q 171 122 118 164 q 293 85 218 85 q 406 112 356 85 q 469 207 469 147 q 353 310 469 276 q 137 372 138 371 q 20 544 20 426 q 108 708 20 647 q 292 761 185 761 q 482 705 405 761 q 571 532 571 643 l 453 532 q 404 625 453 594 q 292 657 356 657 q 195 636 237 657 q 140 558 140 608 q 257 454 140 486 q 474 394 469 397 q 592 217 592 341 "},"B":{"x_min":0,"x_max":762,"ha":859,"o":"m 569 545 q 709 468 657 534 q 762 310 762 402 q 659 82 762 170 q 423 -1 563 -1 l 0 -1 l 0 1012 l 402 1012 q 616 956 530 1012 q 717 767 717 891 q 676 632 717 692 q 569 545 636 571 m 385 898 l 136 898 l 136 587 l 371 587 q 510 623 453 587 q 580 743 580 666 q 520 858 580 818 q 385 898 461 898 m 411 123 q 555 168 494 123 q 622 302 622 218 q 548 435 622 388 q 394 476 484 476 l 136 476 l 136 123 l 411 123 "},"…":{"x_min":0,"x_max":601,"ha":694,"o":"m 139 0 l 0 0 l 0 151 l 139 151 l 139 0 m 370 0 l 231 0 l 231 151 l 370 151 l 370 0 m 601 0 l 462 0 l 462 151 l 601 151 l 601 0 "},"?":{"x_min":0,"x_max":595,"ha":690,"o":"m 595 777 q 532 599 595 674 q 413 474 472 537 q 350 271 350 391 l 232 271 q 291 487 232 395 q 402 619 293 490 q 464 762 464 691 q 413 885 464 838 q 295 933 363 933 q 175 880 223 933 q 121 707 121 819 l 0 707 q 92 963 0 872 q 296 1044 174 1044 q 501 973 415 1044 q 595 777 595 895 m 362 0 l 226 0 l 226 151 l 362 151 l 362 0 "},"H":{"x_min":0,"x_max":787,"ha":897,"o":"m 787 0 l 654 0 l 654 475 l 137 475 l 137 0 l 0 0 l 0 1012 l 137 1012 l 137 599 l 654 599 l 654 1012 l 787 1012 l 787 0 "},"ν":{"x_min":0,"x_max":661.5,"ha":746,"o":"m 661 737 l 396 0 l 266 0 l 0 737 l 130 737 l 333 147 l 530 737 l 661 737 "},"c":{"x_min":1,"x_max":687.328125,"ha":759,"o":"m 687 264 q 572 53 668 133 q 346 -26 477 -26 q 89 91 184 -26 q 1 370 1 201 q 90 645 1 537 q 346 761 186 761 q 561 688 469 761 q 676 493 653 615 l 545 493 q 477 606 534 562 q 349 650 420 650 q 183 563 242 650 q 132 372 132 487 q 185 179 132 258 q 352 88 246 88 q 483 136 428 88 q 555 264 537 185 l 687 264 "},"¶":{"x_min":-0.421875,"x_max":555,"ha":664,"o":"m 20 891 l 51 891 l 96 760 l 142 891 l 172 891 l 172 737 l 153 737 l 153 865 l 105 737 l 86 737 l 39 870 l 39 737 l 20 737 l 20 891 m 302 853 l 302 730 q 248 690 302 690 q 224 690 236 690 q 205 695 210 694 l 202 711 l 247 705 q 281 732 281 705 l 281 763 q 239 740 273 740 q 189 796 189 740 q 257 859 189 859 q 283 859 269 859 q 302 853 296 854 m 283 841 l 258 841 q 208 794 208 841 q 243 755 208 755 q 283 795 283 755 l 283 841 m 555 987 l 492 987 l 492 -1 l 429 -1 l 429 987 l 310 987 l 310 -1 l 247 -1 l 247 601 q 79 652 151 601 q 0 805 0 710 q 98 988 0 917 q 303 1052 189 1052 l 555 1052 l 555 987 "},"β":{"x_min":0,"x_max":647,"ha":730,"o":"m 462 549 q 598 449 549 521 q 647 280 647 377 q 567 64 647 151 q 360 -22 487 -22 q 234 4 294 -22 q 124 81 175 31 l 124 -278 l 0 -278 l 0 593 q 53 903 0 801 q 311 1042 125 1042 q 509 964 427 1042 q 591 770 591 887 q 556 643 591 701 q 462 549 521 585 m 330 79 q 466 138 409 79 q 524 278 524 198 q 419 436 524 385 q 222 477 337 477 l 222 583 q 391 620 322 583 q 477 762 477 667 q 427 884 477 833 q 306 935 377 935 q 166 861 215 935 q 124 698 124 797 l 124 362 q 167 169 124 242 q 330 79 220 79 "},"Μ":{"x_min":0,"x_max":935,"ha":1047,"o":"m 935 0 l 803 0 l 803 867 l 526 0 l 397 0 l 125 864 l 125 0 l 0 0 l 0 1012 l 195 1012 l 462 158 l 743 1012 l 935 1012 l 935 0 "},"Ό":{"x_min":-0.328125,"x_max":1097,"ha":1192,"o":"m 1097 505 q 974 132 1097 282 q 628 -29 843 -29 q 284 130 413 -29 q 163 505 163 280 q 288 883 163 730 q 636 1046 421 1046 q 978 882 850 1046 q 1097 505 1097 730 m 957 504 q 877 784 957 669 q 631 915 787 915 q 383 785 474 915 q 300 504 300 669 q 383 224 300 339 q 631 95 475 95 q 876 224 786 95 q 957 504 957 339 m 271 1040 l 81 800 l 0 800 l 137 1040 l 271 1040 "},"Ή":{"x_min":-0.4375,"x_max":1135,"ha":1249,"o":"m 1135 0 l 1002 0 l 1002 475 l 485 475 l 485 0 l 348 0 l 348 1012 l 485 1012 l 485 599 l 1002 599 l 1002 1012 l 1135 1012 l 1135 0 m 271 1040 l 81 800 l 0 800 l 137 1040 l 271 1040 "},"•":{"x_min":0,"x_max":651,"ha":760,"o":"m 651 529 q 555 293 651 391 q 325 196 460 196 q 95 294 190 196 q 0 529 0 393 q 94 763 0 665 q 325 861 189 861 q 555 763 460 861 q 651 529 651 665 "},"¥":{"x_min":-0.5,"x_max":802.140625,"ha":867,"o":"m 552 561 l 681 561 l 681 486 l 510 486 l 472 416 l 472 380 l 681 380 l 681 306 l 472 306 l 472 0 l 335 0 l 335 306 l 122 306 l 122 380 l 335 380 l 335 416 l 296 486 l 122 486 l 122 561 l 253 561 l 0 1012 l 137 1012 l 402 533 l 664 1012 l 802 1012 l 552 561 "},"(":{"x_min":0,"x_max":312.1875,"ha":407,"o":"m 312 -290 l 226 -290 q 60 23 120 -142 q 0 365 0 190 q 61 712 0 540 q 226 1024 117 869 l 312 1024 q 172 705 215 853 q 123 360 123 542 q 173 22 123 187 q 312 -290 219 -127 "},"U":{"x_min":0,"x_max":780,"ha":886,"o":"m 780 392 q 667 93 780 212 q 378 -25 555 -25 q 99 95 204 -25 q 0 392 0 211 l 0 1012 l 135 1012 l 135 391 q 200 191 135 270 q 386 107 271 107 q 574 191 502 107 q 643 391 643 270 l 643 1012 l 780 1012 l 780 392 "},"γ":{"x_min":0,"x_max":730.3125,"ha":807,"o":"m 730 737 l 454 53 l 454 -278 l 331 -278 l 331 53 l 151 495 q 102 596 121 569 q 12 651 65 651 l 0 651 l 0 751 l 38 751 q 164 710 118 751 q 237 594 202 675 l 395 208 l 605 737 l 730 737 "},"α":{"x_min":0,"x_max":750,"ha":792,"o":"m 750 -3 q 684 -13 711 -13 q 552 97 574 -13 q 456 7 514 40 q 330 -26 399 -26 q 87 98 182 -26 q 0 369 0 212 q 87 637 0 525 q 330 760 181 760 q 456 728 399 760 q 551 637 513 696 l 551 739 l 671 739 l 671 222 q 679 142 671 168 q 733 95 694 95 q 750 96 744 95 l 750 -3 m 572 371 q 520 562 572 484 q 352 653 460 653 q 187 566 249 653 q 132 379 132 489 q 182 180 132 261 q 351 83 242 83 q 517 176 456 83 q 572 371 572 260 "},"F":{"x_min":0,"x_max":669.203125,"ha":702,"o":"m 669 887 l 137 887 l 137 583 l 601 583 l 601 458 l 137 458 l 137 0 l 0 0 l 0 1012 l 669 1012 l 669 887 "},"­":{"x_min":0,"x_max":691,"ha":786,"o":"m 691 335 l 0 335 l 0 411 l 691 411 l 691 335 "},":":{"x_min":0,"x_max":139,"ha":234,"o":"m 139 585 l 0 585 l 0 738 l 139 738 l 139 585 m 139 0 l 0 0 l 0 151 l 139 151 l 139 0 "},"Χ":{"x_min":0,"x_max":837.078125,"ha":916,"o":"m 837 0 l 669 0 l 415 409 l 163 0 l 0 0 l 340 519 l 17 1012 l 182 1012 l 419 637 l 661 1012 l 819 1012 l 494 520 l 837 0 "},"*":{"x_min":114.140625,"x_max":661.21875,"ha":776,"o":"m 661 767 l 466 713 l 598 544 l 508 477 l 387 652 l 269 480 l 175 544 l 308 713 l 114 766 l 150 875 l 336 812 l 336 1012 l 438 1012 l 438 812 l 623 874 l 661 767 "},"†":{"x_min":0,"x_max":762,"ha":818,"o":"m 449 804 l 762 804 l 762 682 l 449 682 l 449 0 l 313 0 l 313 682 l 0 682 l 0 804 l 313 804 l 313 1014 l 449 1014 l 449 804 "},"°":{"x_min":0,"x_max":340,"ha":435,"o":"m 170 803 q 42 857 89 803 q 0 978 0 905 q 44 1101 0 1050 q 169 1153 88 1153 q 297 1098 250 1153 q 340 977 340 1050 q 297 857 340 905 q 170 803 251 803 m 170 885 q 233 911 210 885 q 257 973 257 937 q 235 1038 257 1012 q 170 1064 213 1064 q 106 1037 129 1064 q 83 973 83 1011 q 106 911 83 937 q 170 885 129 885 "},"V":{"x_min":0,"x_max":845.25,"ha":921,"o":"m 845 1012 l 495 0 l 353 0 l 0 1012 l 140 1012 l 426 165 l 703 1012 l 845 1012 "},"Ξ":{"x_min":0,"x_max":720,"ha":747,"o":"m 709 888 l 9 888 l 9 1012 l 709 1012 l 709 888 m 660 462 l 60 462 l 60 588 l 660 588 l 660 462 m 720 -1 l 0 -1 l 0 123 l 720 123 l 720 -1 "}," ":{"x_min":0,"x_max":0,"ha":836},"Ϋ":{"x_min":-0.3125,"x_max":802.3125,"ha":870,"o":"m 575 1045 l 450 1045 l 450 1188 l 575 1188 l 575 1045 m 352 1045 l 227 1045 l 227 1188 l 352 1188 l 352 1045 m 802 1012 l 472 416 l 472 0 l 335 0 l 335 416 l 0 1012 l 137 1012 l 402 532 l 664 1012 l 802 1012 "},"0":{"x_min":72,"x_max":701,"ha":776,"o":"m 386 -29 q 150 129 238 -29 q 72 479 72 272 q 149 829 72 687 q 386 989 236 989 q 622 829 534 989 q 701 479 701 684 q 623 129 701 270 q 386 -29 536 -29 m 386 89 q 536 211 480 89 q 587 479 587 322 q 537 748 587 640 q 386 871 481 871 q 236 748 292 871 q 186 479 186 637 q 235 211 186 319 q 386 89 291 89 "},"”":{"x_min":0,"x_max":340,"ha":445,"o":"m 136 851 q 99 737 136 784 q 0 670 63 691 l 0 734 q 58 787 42 741 q 71 872 71 820 l 0 872 l 0 1012 l 136 1012 l 136 851 m 340 851 q 303 737 340 784 q 204 670 267 691 l 204 734 q 262 787 246 741 q 275 872 275 820 l 204 872 l 204 1012 l 340 1012 l 340 851 "},"@":{"x_min":0,"x_max":1234,"ha":1329,"o":"m 1076 -45 q 859 -160 981 -118 q 620 -203 737 -203 q 152 -29 321 -203 q 0 360 0 127 q 172 802 0 616 q 673 1008 364 1008 q 1100 853 949 1008 q 1234 516 1234 717 q 1132 214 1234 339 q 850 80 1023 80 q 756 104 785 80 q 723 201 723 134 q 634 112 686 143 q 517 81 582 81 q 360 146 412 81 q 308 311 308 211 q 393 564 308 452 q 626 690 489 690 q 793 588 744 690 l 832 667 l 919 667 q 860 440 882 531 q 817 224 817 266 q 836 180 817 196 q 885 165 856 165 q 1065 270 992 165 q 1135 510 1135 370 q 1030 793 1135 680 q 673 925 906 925 q 243 747 406 925 q 95 361 95 586 q 221 26 95 159 q 615 -122 363 -122 q 839 -88 722 -122 q 1039 6 957 -54 l 1076 -45 m 770 488 q 724 580 762 545 q 630 615 686 615 q 474 517 538 615 q 417 321 417 430 q 448 202 417 249 q 542 155 480 155 q 708 273 652 155 q 770 488 724 309 "},"Ί":{"x_min":0.46875,"x_max":489,"ha":601,"o":"m 272 1040 l 82 800 l 0 800 l 137 1040 l 272 1040 m 489 0 l 353 0 l 353 1012 l 489 1012 l 489 0 "},"i":{"x_min":14,"x_max":134,"ha":270,"o":"m 134 872 l 14 872 l 14 1012 l 134 1012 l 134 872 m 134 0 l 14 0 l 14 737 l 134 737 l 134 0 "},"Β":{"x_min":0,"x_max":762,"ha":859,"o":"m 569 545 q 709 468 657 534 q 762 310 762 402 q 659 82 762 170 q 423 -1 563 -1 l 0 -1 l 0 1012 l 402 1012 q 616 956 530 1012 q 717 767 717 891 q 676 632 717 692 q 569 545 636 571 m 385 898 l 136 898 l 136 587 l 371 587 q 510 623 453 587 q 580 743 580 666 q 520 858 580 818 q 385 898 461 898 m 411 123 q 555 168 494 123 q 622 302 622 218 q 548 435 622 388 q 394 476 484 476 l 136 476 l 136 123 l 411 123 "},"υ":{"x_min":0,"x_max":605,"ha":711,"o":"m 605 352 q 530 93 605 199 q 302 -24 446 -24 q 74 93 158 -24 q 0 352 0 199 l 0 738 l 124 738 l 124 354 q 166 185 124 257 q 306 98 216 98 q 442 185 394 98 q 482 354 482 257 l 482 738 l 605 738 l 605 352 "},"]":{"x_min":-0.359375,"x_max":269,"ha":364,"o":"m 269 -281 l 0 -281 l 0 -187 l 148 -187 l 148 919 l 0 919 l 0 1012 l 269 1012 l 269 -281 "},"m":{"x_min":0,"x_max":999,"ha":1105,"o":"m 999 0 l 879 0 l 879 453 q 843 591 879 535 q 725 659 800 659 q 601 585 646 659 q 562 435 562 521 l 562 0 l 438 0 l 438 453 q 404 589 438 534 q 288 655 364 655 q 162 584 209 655 q 120 435 120 520 l 120 0 l 0 0 l 0 738 l 114 738 l 114 639 q 198 728 147 696 q 310 761 249 761 q 429 728 374 761 q 515 639 484 695 q 608 729 548 697 q 738 762 669 762 q 924 693 850 762 q 999 512 999 624 l 999 0 "},"χ":{"x_min":8,"x_max":765,"ha":799,"o":"m 765 -279 q 701 -295 732 -295 q 604 -258 650 -295 q 537 -176 564 -227 l 371 133 l 140 -278 l 9 -278 l 307 253 l 160 521 q 125 585 129 580 q 35 640 89 640 q 8 637 27 640 l 8 752 l 51 757 q 159 719 111 757 q 231 627 195 690 l 375 372 l 582 737 l 711 737 l 439 249 l 612 -69 q 657 -154 634 -111 q 728 -189 681 -189 q 765 -184 744 -189 l 765 -279 "},"8":{"x_min":54,"x_max":721,"ha":775,"o":"m 560 528 q 680 425 639 492 q 721 281 721 358 q 635 71 721 158 q 387 -26 539 -26 q 139 69 233 -26 q 54 279 54 157 q 94 426 54 360 q 215 528 135 492 q 118 615 150 563 q 87 726 87 668 q 168 904 87 827 q 387 986 256 986 q 606 905 519 986 q 688 728 688 830 q 656 617 688 668 q 560 528 625 565 m 387 566 q 509 611 466 566 q 552 718 552 656 q 511 823 552 782 q 384 872 464 872 q 260 824 307 872 q 220 721 220 783 q 260 614 220 657 q 387 566 307 566 m 387 91 q 534 150 478 91 q 585 281 585 204 q 535 409 585 356 q 387 466 482 466 q 239 409 293 466 q 190 281 190 357 q 239 150 190 203 q 387 91 293 91 "},"ί":{"x_min":41,"x_max":320.53125,"ha":355,"o":"m 278 3 q 228 -10 253 -5 q 178 -15 203 -15 q 83 26 117 -15 q 41 200 41 79 l 41 738 l 164 738 l 164 215 q 168 142 164 157 q 222 102 179 102 q 243 103 234 102 q 278 113 252 104 l 278 3 m 320 1040 l 135 820 l 53 820 l 185 1040 l 320 1040 "},"Ζ":{"x_min":0,"x_max":764,"ha":833,"o":"m 764 -1 l 0 -1 l 0 113 l 608 895 l 40 895 l 40 1012 l 764 1012 l 764 886 l 167 123 l 764 123 l 764 -1 "},"R":{"x_min":0,"x_max":766.203125,"ha":889,"o":"m 766 -1 l 611 -1 q 576 242 576 52 q 401 433 576 433 l 136 433 l 136 0 l 0 0 l 0 1012 l 388 1012 q 623 945 528 1012 q 734 731 734 867 q 697 596 734 659 q 596 502 660 534 q 704 370 682 474 q 715 207 715 352 q 766 25 715 61 l 766 -1 m 366 551 q 522 594 456 551 q 602 731 602 645 q 521 858 602 814 q 366 895 456 895 l 134 895 l 134 551 l 366 551 "},"o":{"x_min":0,"x_max":698,"ha":804,"o":"m 349 -25 q 92 91 190 -25 q 0 368 0 202 q 91 642 0 533 q 349 761 189 761 q 605 644 507 761 q 698 368 698 533 q 606 91 698 201 q 349 -25 510 -25 m 349 84 q 517 174 455 84 q 571 369 571 255 q 518 562 571 484 q 349 651 457 651 q 185 561 244 651 q 132 369 132 481 q 183 177 132 256 q 349 84 244 84 "},"5":{"x_min":52.71875,"x_max":722,"ha":775,"o":"m 722 313 q 613 59 722 152 q 373 -24 515 -24 q 152 46 243 -24 q 52 255 52 124 l 179 255 q 253 131 199 173 q 373 90 307 90 q 522 148 461 90 q 589 313 589 212 q 527 468 589 410 q 378 527 465 527 q 278 505 324 527 q 192 438 232 484 l 79 438 l 156 958 l 671 958 l 671 840 l 248 840 l 209 578 q 299 626 252 611 q 398 642 346 642 q 622 551 528 642 q 722 313 722 456 "},"7":{"x_min":59,"x_max":718,"ha":777,"o":"m 718 839 q 461 448 550 641 q 329 0 372 255 l 189 0 q 323 441 231 252 q 583 830 414 630 l 59 830 l 59 958 l 718 958 l 718 839 "},"K":{"x_min":0,"x_max":802.953125,"ha":887,"o":"m 802 0 l 636 0 l 288 509 l 136 356 l 136 0 l 0 0 l 0 1012 l 136 1012 l 136 526 l 613 1012 l 793 1012 l 387 599 l 802 0 "},",":{"x_min":0,"x_max":139,"ha":234,"o":"m 139 -12 q 102 -133 139 -83 q 0 -206 66 -183 l 0 -138 q 55 -83 39 -124 q 68 0 68 -51 l 0 0 l 0 151 l 139 151 l 139 -12 "},"d":{"x_min":0,"x_max":669,"ha":779,"o":"m 669 0 l 552 0 l 552 93 q 446 6 506 38 q 321 -25 387 -25 q 85 99 178 -25 q 0 365 0 215 q 88 639 0 525 q 336 762 183 762 q 552 647 476 762 l 552 1012 l 669 1012 l 669 0 m 570 373 q 518 562 570 484 q 353 653 458 653 q 186 561 247 653 q 132 365 132 479 q 185 175 132 254 q 351 84 246 84 q 518 177 458 84 q 570 373 570 258 "},"¨":{"x_min":-107,"x_max":241,"ha":227,"o":"m 241 1046 l 116 1046 l 116 1189 l 241 1189 l 241 1046 m 18 1046 l -107 1046 l -107 1189 l 18 1189 l 18 1046 "},"E":{"x_min":0,"x_max":721.28125,"ha":773,"o":"m 721 -1 l 0 -1 l 0 1012 l 710 1012 l 710 888 l 136 888 l 136 584 l 664 584 l 664 466 l 136 466 l 136 124 l 721 124 l 721 -1 "},"Y":{"x_min":0.171875,"x_max":802.75,"ha":868,"o":"m 802 1012 l 472 416 l 472 0 l 335 0 l 335 416 l 0 1012 l 137 1012 l 402 533 l 665 1012 l 802 1012 "},"\"":{"x_min":0,"x_max":293,"ha":388,"o":"m 293 605 l 199 605 l 199 987 l 293 987 l 293 605 m 94 605 l 0 605 l 0 987 l 94 987 l 94 605 "},"‹":{"x_min":18,"x_max":758,"ha":776,"o":"m 758 41 l 18 376 l 18 465 l 758 798 l 758 691 l 156 420 l 758 149 l 758 41 "},"„":{"x_min":0,"x_max":357,"ha":458,"o":"m 139 -12 q 102 -133 139 -83 q 0 -206 66 -183 l 0 -138 q 55 -83 39 -124 q 68 0 68 -51 l 0 0 l 0 151 l 139 151 l 139 -12 m 357 -12 q 320 -133 357 -83 q 218 -206 284 -183 l 218 -138 q 273 -83 257 -124 q 286 0 286 -51 l 218 0 l 218 151 l 357 151 l 357 -12 "},"δ":{"x_min":1,"x_max":695,"ha":793,"o":"m 695 360 q 603 87 695 197 q 349 -28 507 -28 q 96 82 192 -28 q 1 356 1 192 q 98 606 1 509 q 347 703 195 703 q 176 829 282 754 q 69 903 122 866 l 69 1012 l 630 1012 l 630 901 l 252 901 q 452 763 413 794 q 622 592 565 677 q 695 360 695 486 m 571 364 q 540 501 571 446 q 441 602 509 555 q 364 611 402 611 q 192 541 252 611 q 133 355 133 471 q 186 170 133 245 q 350 84 247 84 q 516 173 455 84 q 571 364 571 252 "},"έ":{"x_min":0,"x_max":622.53125,"ha":700,"o":"m 622 235 q 517 38 622 111 q 294 -25 425 -25 q 96 29 179 -25 q 0 204 0 93 q 36 313 0 265 q 127 390 66 352 q 56 459 82 419 q 26 555 26 505 q 113 712 26 654 q 290 763 188 763 q 490 700 408 763 q 579 515 579 632 l 469 515 q 411 618 455 580 q 302 657 367 657 q 204 630 249 657 q 149 547 149 598 q 234 446 149 469 q 382 435 274 435 l 382 332 l 342 332 q 203 315 250 332 q 123 210 123 287 q 180 108 123 145 q 297 76 229 76 q 427 117 371 76 q 499 235 483 159 l 622 235 m 510 1040 l 325 819 l 243 819 l 375 1040 l 510 1040 "},"ω":{"x_min":0,"x_max":904,"ha":1010,"o":"m 904 339 q 839 97 904 203 q 637 -26 765 -26 q 527 9 575 -26 q 451 103 479 44 q 379 12 427 46 q 272 -21 332 -21 q 68 97 144 -21 q 0 339 0 203 q 44 552 0 445 q 157 737 82 643 l 296 737 q 171 553 214 647 q 121 336 121 446 q 152 179 121 249 q 269 88 193 88 q 367 163 334 88 q 392 295 392 220 l 392 573 l 513 573 l 513 295 q 549 135 513 192 q 630 88 579 88 q 746 182 704 88 q 781 342 781 257 q 730 556 781 450 q 606 737 691 638 l 745 737 q 857 551 819 640 q 904 339 904 444 "},"´":{"x_min":0,"x_max":94,"ha":246,"o":"m 94 605 l 0 605 l 0 987 l 94 987 l 94 605 "},"±":{"x_min":11,"x_max":765,"ha":776,"o":"m 765 490 l 437 490 l 437 256 l 342 256 l 342 490 l 11 490 l 11 586 l 341 586 l 341 820 l 436 820 l 436 586 l 765 586 l 765 490 m 765 21 l 11 21 l 11 115 l 765 115 l 765 21 "},"|":{"x_min":336,"x_max":439,"ha":775,"o":"m 439 462 l 336 462 l 336 986 l 439 986 l 439 462 m 439 -242 l 336 -242 l 336 280 l 439 280 l 439 -242 "},"ϋ":{"x_min":0,"x_max":605,"ha":711,"o":"m 473 799 l 365 799 l 365 924 l 473 924 l 473 799 m 234 799 l 126 799 l 126 924 l 234 924 l 234 799 m 605 352 q 530 93 605 199 q 302 -24 446 -24 q 74 93 158 -24 q 0 352 0 199 l 0 738 l 124 738 l 124 354 q 166 185 124 257 q 306 98 216 98 q 442 185 394 98 q 482 354 482 257 l 482 738 l 605 738 l 605 352 "},"§":{"x_min":0,"x_max":581,"ha":676,"o":"m 581 425 q 543 311 581 369 q 457 233 505 254 q 527 83 527 172 q 450 -74 527 -12 q 283 -133 379 -133 q 113 -69 180 -133 q 46 96 46 -6 l 163 96 q 195 7 163 40 q 282 -26 228 -26 q 363 -5 325 -26 q 411 60 411 21 q 304 201 411 139 q 106 309 205 255 q 0 490 0 383 q 32 602 0 551 q 121 687 65 654 q 74 743 91 712 q 57 812 57 773 q 130 984 57 920 q 293 1043 197 1043 q 448 987 386 1043 q 518 814 518 925 l 402 814 q 362 908 396 877 q 282 939 329 939 q 207 911 240 939 q 175 841 175 883 q 280 720 175 779 q 474 612 470 615 q 581 425 581 534 m 457 409 q 348 544 457 473 q 191 630 222 612 q 142 587 158 609 q 121 525 121 558 q 233 387 121 462 q 390 298 361 315 q 438 345 420 316 q 457 409 457 375 "},"b":{"x_min":0,"x_max":671,"ha":768,"o":"m 671 372 q 585 99 671 213 q 340 -25 491 -25 q 214 5 272 -25 q 118 92 157 35 l 118 0 l 0 0 l 0 1012 l 118 1012 l 118 634 q 210 723 153 692 q 334 754 266 754 q 579 637 483 754 q 671 372 671 526 m 543 356 q 489 551 543 470 q 322 644 428 644 q 159 556 219 644 q 106 369 106 478 q 157 176 106 256 q 323 83 217 83 q 488 169 427 83 q 543 356 543 245 "},"q":{"x_min":0,"x_max":669,"ha":858,"o":"m 669 -278 l 552 -278 l 552 96 q 464 7 522 38 q 338 -24 406 -24 q 89 92 185 -24 q 0 363 0 202 q 85 634 0 521 q 330 759 180 759 q 456 727 399 759 q 552 637 512 695 l 552 737 l 669 737 l 669 -278 m 570 374 q 516 563 570 487 q 351 651 457 651 q 186 564 247 651 q 132 376 132 487 q 185 178 132 260 q 353 83 246 83 q 519 178 459 83 q 570 374 570 259 "},"Ω":{"x_min":0,"x_max":950,"ha":1047,"o":"m 950 1 l 544 1 l 544 125 q 729 310 661 195 q 798 559 798 424 q 712 813 798 710 q 475 923 620 923 q 239 821 328 923 q 151 569 151 720 q 219 317 151 434 q 404 125 287 201 l 404 1 l 0 1 l 0 125 l 213 125 q 67 328 119 211 q 15 573 15 445 q 142 912 15 782 q 475 1042 269 1042 q 806 910 678 1042 q 934 570 934 778 q 881 327 934 444 q 735 125 829 211 l 950 125 l 950 1 "},"ύ":{"x_min":0,"x_max":605,"ha":711,"o":"m 605 352 q 530 93 605 199 q 302 -24 446 -24 q 74 93 158 -24 q 0 352 0 199 l 0 738 l 124 738 l 124 354 q 166 185 124 257 q 306 98 216 98 q 442 185 394 98 q 482 354 482 257 l 482 738 l 605 738 l 605 352 m 524 1039 l 339 819 l 257 819 l 389 1039 l 524 1039 "},"z":{"x_min":0,"x_max":602,"ha":684,"o":"m 602 0 l 0 0 l 0 99 l 424 629 l 20 629 l 20 737 l 582 737 l 582 635 l 160 109 l 602 109 l 602 0 "},"™":{"x_min":0,"x_max":875,"ha":980,"o":"m 381 951 l 225 951 l 225 502 l 157 502 l 157 948 l 0 948 l 0 1011 l 381 1011 l 381 951 m 875 503 l 810 503 l 810 938 l 671 503 l 607 503 l 471 937 l 471 503 l 408 503 l 408 1011 l 506 1011 l 639 582 l 780 1011 l 875 1011 l 875 503 "},"ή":{"x_min":0,"x_max":684,"ha":794,"o":"m 684 -278 l 561 -278 l 561 453 q 529 587 561 535 q 416 650 491 650 q 266 579 331 650 q 202 420 202 509 l 202 0 l 79 0 l 79 489 q 70 588 79 562 q 0 644 54 644 l 0 741 q 66 755 36 755 q 155 721 121 755 q 196 630 189 687 q 291 726 230 692 q 426 761 353 761 q 609 692 534 761 q 684 516 684 624 l 684 -278 m 469 1040 l 284 819 l 203 819 l 335 1040 l 469 1040 "},"Θ":{"x_min":0,"x_max":940,"ha":1034,"o":"m 940 506 q 816 129 940 280 q 466 -32 684 -32 q 121 129 250 -32 q 0 506 0 280 q 121 882 0 731 q 466 1044 250 1044 q 814 882 681 1044 q 940 506 940 731 m 800 499 q 718 788 800 669 q 466 923 625 923 q 219 791 310 923 q 139 506 139 674 q 217 222 139 338 q 466 89 309 89 q 715 218 623 89 q 800 499 800 334 m 702 449 l 238 449 l 238 571 l 702 571 l 702 449 "},"®":{"x_min":-3,"x_max":988,"ha":1083,"o":"m 493 532 q 602 562 554 532 q 658 658 658 598 q 602 747 658 716 q 493 772 557 772 l 332 772 l 332 532 l 493 532 m 492 -7 q 120 151 258 -7 q -3 501 -3 294 q 120 851 -3 706 q 492 1011 258 1011 q 864 851 725 1011 q 988 501 988 708 q 865 151 988 292 q 492 -7 729 -7 m 492 60 q 813 197 695 60 q 921 501 921 322 q 814 805 921 681 q 492 944 695 944 q 171 805 291 944 q 64 501 64 680 q 170 197 64 320 q 492 60 288 60 m 773 145 l 664 145 q 641 316 641 183 q 517 449 641 449 l 332 449 l 332 145 l 237 145 l 237 854 l 508 854 q 674 808 609 854 q 751 658 751 755 q 725 563 751 606 q 654 497 699 519 q 736 331 736 472 q 773 163 736 190 l 773 145 "},"~":{"x_min":0,"x_max":817,"ha":912,"o":"m 817 958 q 763 753 817 831 q 582 665 702 665 q 394 761 492 665 q 235 857 296 857 q 129 795 163 857 q 102 665 102 745 l 0 665 q 53 867 0 789 q 232 958 114 958 q 421 861 325 958 q 582 765 517 765 q 690 827 657 765 q 715 958 715 874 l 817 958 "},"Ε":{"x_min":0,"x_max":721.28125,"ha":762,"o":"m 721 -1 l 0 -1 l 0 1012 l 710 1012 l 710 888 l 136 888 l 136 584 l 664 584 l 664 466 l 136 466 l 136 124 l 721 124 l 721 -1 "},"³":{"x_min":0,"x_max":441,"ha":536,"o":"m 441 552 q 371 414 441 465 q 216 367 307 367 q 68 415 127 367 q 0 567 0 471 l 83 567 q 123 471 83 504 q 220 438 164 438 q 314 468 275 438 q 353 553 353 499 q 312 632 353 608 q 209 657 271 657 q 192 657 200 657 q 173 654 178 654 l 173 722 q 274 733 245 722 q 328 815 328 752 q 295 881 328 856 q 216 907 262 907 q 130 875 165 907 q 95 781 95 844 l 15 781 q 77 926 15 875 q 216 972 133 972 q 358 930 298 972 q 418 817 418 888 q 337 697 418 733 q 413 643 385 681 q 441 552 441 604 "},"[":{"x_min":0,"x_max":268,"ha":363,"o":"m 268 -281 l 0 -281 l 0 1012 l 268 1012 l 268 919 l 121 919 l 121 -187 l 268 -187 l 268 -281 "},"L":{"x_min":0,"x_max":632.453125,"ha":681,"o":"m 632 0 l 0 0 l 0 1012 l 137 1012 l 137 126 l 632 126 l 632 0 "},"σ":{"x_min":0,"x_max":788,"ha":876,"o":"m 788 628 l 622 628 q 699 368 699 512 q 607 93 699 204 q 351 -25 509 -25 q 92 91 190 -25 q 0 368 0 201 q 92 644 0 533 q 349 761 190 761 q 472 750 390 761 q 597 739 553 739 l 788 739 l 788 628 m 353 84 q 519 180 458 84 q 573 374 573 262 q 517 566 573 490 q 345 651 454 651 q 183 559 242 651 q 132 368 132 479 q 185 175 132 254 q 353 84 246 84 "},"ζ":{"x_min":0,"x_max":561,"ha":629,"o":"m 561 -40 q 541 -162 561 -97 q 499 -278 532 -193 l 392 -278 q 431 -187 419 -219 q 452 -90 452 -132 q 370 -14 452 -14 q 106 45 193 -14 q 0 289 0 117 q 106 631 0 462 q 345 901 190 767 l 55 901 l 55 1012 l 550 1012 l 550 924 q 255 669 374 831 q 125 301 125 489 q 238 117 125 149 q 447 98 343 108 q 561 -40 561 80 "},"θ":{"x_min":0,"x_max":660,"ha":762,"o":"m 660 496 q 589 160 660 304 q 329 -26 498 -26 q 72 153 161 -26 q 0 484 0 296 q 70 840 0 683 q 336 1044 163 1044 q 593 844 506 1044 q 660 496 660 691 m 535 579 q 488 798 535 691 q 329 935 428 935 q 175 798 232 935 q 124 579 134 701 l 535 579 m 535 475 l 124 475 q 167 233 124 348 q 332 80 226 80 q 494 233 438 80 q 535 475 535 346 "},"Ο":{"x_min":0,"x_max":939,"ha":1033,"o":"m 476 1042 q 817 883 689 1042 q 939 511 939 735 q 817 136 939 287 q 472 -26 687 -26 q 123 130 255 -26 q 0 504 0 279 q 125 880 0 729 q 476 1042 258 1042 m 471 98 q 717 225 626 98 q 799 504 799 340 q 718 783 799 670 q 471 913 627 913 q 222 785 314 913 q 139 504 139 671 q 222 224 139 339 q 471 98 313 98 "},"Γ":{"x_min":0,"x_max":690.984375,"ha":733,"o":"m 690 886 l 137 886 l 137 0 l 0 0 l 0 1012 l 690 1012 l 690 886 "}," ":{"x_min":0,"x_max":0,"ha":368},"%":{"x_min":-3,"x_max":1067,"ha":1162,"o":"m 828 0 q 650 76 717 0 q 591 244 591 145 q 649 412 591 344 q 829 489 714 489 q 1007 412 940 489 q 1067 244 1067 343 q 1008 76 1067 144 q 828 0 943 0 m 827 103 q 926 143 891 103 q 961 243 961 184 q 928 340 961 301 q 827 385 891 385 q 730 342 766 385 q 694 243 694 300 q 726 147 694 186 q 827 103 764 103 m 871 986 l 278 -26 l 195 -26 l 788 986 l 871 986 m 236 468 q 56 545 123 468 q -3 714 -3 615 q 55 881 -3 813 q 233 958 122 958 q 413 881 346 958 q 473 712 473 813 q 414 544 473 612 q 236 468 349 468 m 236 855 q 134 811 171 855 q 98 710 98 768 q 133 612 98 653 q 235 572 168 572 q 337 614 300 572 q 374 713 374 656 q 340 810 374 771 q 236 855 301 855 "},"P":{"x_min":0,"x_max":712,"ha":790,"o":"m 416 1012 q 628 930 544 1012 q 712 719 712 849 q 624 506 712 587 q 405 426 537 426 l 137 426 l 137 0 l 0 0 l 0 1012 l 416 1012 m 371 888 l 137 888 l 137 548 l 364 548 q 511 589 450 548 q 581 720 581 636 q 517 844 581 800 q 371 888 454 888 "},"Έ":{"x_min":0.171875,"x_max":1056.28125,"ha":1096,"o":"m 1056 -1 l 335 -1 l 335 1012 l 1045 1012 l 1045 888 l 471 888 l 471 584 l 999 584 l 999 466 l 471 466 l 471 124 l 1056 124 l 1056 -1 m 272 1039 l 81 799 l 0 799 l 137 1039 l 272 1039 "},"Ώ":{"x_min":-0.328125,"x_max":1113,"ha":1210,"o":"m 1113 1 l 707 1 l 707 125 q 892 310 824 195 q 961 559 961 424 q 875 813 961 710 q 638 923 783 923 q 402 821 491 923 q 314 569 314 720 q 382 317 314 434 q 567 125 450 201 l 567 1 l 163 1 l 163 125 l 376 125 q 230 328 282 211 q 178 573 178 445 q 305 912 178 782 q 638 1042 432 1042 q 969 910 841 1042 q 1097 570 1097 778 q 1044 327 1097 444 q 898 125 992 211 l 1113 125 l 1113 1 m 271 1041 l 81 801 l 0 801 l 137 1041 l 271 1041 "},"_":{"x_min":0,"x_max":691,"ha":786,"o":"m 691 -333 l 0 -333 l 0 -233 l 691 -233 l 691 -333 "},"Ϊ":{"x_min":-107,"x_max":241,"ha":270,"o":"m 241 1046 l 116 1046 l 116 1189 l 241 1189 l 241 1046 m 18 1046 l -107 1046 l -107 1189 l 18 1189 l 18 1046 m 134 0 l 1 0 l 1 1012 l 134 1012 l 134 0 "},"+":{"x_min":23,"x_max":753,"ha":776,"o":"m 753 372 l 435 372 l 435 0 l 340 0 l 340 372 l 23 372 l 23 468 l 339 468 l 339 840 l 434 840 l 434 468 l 753 468 l 753 372 "},"½":{"x_min":0.171875,"x_max":1031,"ha":1126,"o":"m 1031 0 l 613 0 q 698 179 613 108 q 860 277 708 187 q 947 385 947 329 q 913 457 947 430 q 833 484 879 484 q 744 450 782 484 q 707 353 707 416 l 628 353 q 693 502 628 448 q 834 551 751 551 q 967 509 913 551 q 1029 386 1029 462 q 956 251 1029 301 q 812 179 884 215 q 702 68 725 133 l 1031 68 l 1031 0 m 818 984 l 210 -27 l 128 -27 l 735 984 l 818 984 m 219 422 l 139 422 l 139 811 l 0 811 l 0 867 q 102 889 61 867 q 160 973 153 916 l 219 973 l 219 422 "},"Ρ":{"x_min":0,"x_max":706,"ha":767,"o":"m 416 1012 q 625 932 544 1012 q 706 723 706 852 q 621 508 706 591 q 405 426 536 426 l 137 426 l 137 0 l 0 0 l 0 1012 l 416 1012 m 371 888 l 137 888 l 137 548 l 364 548 q 511 589 450 548 q 581 720 581 636 q 517 844 581 800 q 371 888 454 888 "},"'":{"x_min":0,"x_max":136,"ha":231,"o":"m 136 851 q 99 737 136 784 q 0 670 63 691 l 0 734 q 58 787 42 741 q 71 872 71 820 l 0 872 l 0 1012 l 136 1012 l 136 851 "},"ª":{"x_min":0,"x_max":343,"ha":389,"o":"m 343 624 q 302 616 322 616 q 263 630 277 616 q 245 672 249 645 q 189 627 223 643 q 115 612 155 612 q 32 640 64 612 q 0 721 0 668 q 71 825 0 799 q 239 865 155 844 l 242 886 q 216 933 242 915 q 159 952 190 952 q 103 933 126 952 q 75 881 79 914 l 16 881 q 59 975 16 940 q 163 1010 102 1010 q 261 978 220 1010 q 302 890 302 947 l 302 706 q 305 679 302 688 q 325 670 308 670 l 343 670 l 343 624 m 241 756 l 241 810 q 133 789 171 797 q 63 725 63 772 q 82 681 63 696 q 129 666 101 666 q 202 689 170 666 q 241 756 241 717 "},"΅":{"x_min":0,"x_max":441,"ha":542,"o":"m 441 800 l 333 800 l 333 925 l 441 925 l 441 800 m 398 1040 l 208 800 l 126 800 l 263 1040 l 398 1040 m 108 800 l 0 800 l 0 925 l 108 925 l 108 800 "},"T":{"x_min":0,"x_max":762,"ha":818,"o":"m 762 893 l 449 893 l 449 0 l 313 0 l 313 891 l 0 891 l 0 1012 l 762 1012 l 762 893 "},"Φ":{"x_min":0,"x_max":897,"ha":977,"o":"m 516 0 l 381 0 l 381 122 q 108 230 216 122 q 0 509 0 339 q 108 784 0 677 q 381 892 216 892 l 381 1012 l 516 1012 l 516 893 q 788 786 679 893 q 897 509 897 679 q 789 231 897 341 q 516 122 682 122 l 516 0 m 516 226 q 698 310 629 226 q 764 507 764 389 q 698 705 764 627 q 516 787 629 787 l 516 226 m 381 226 l 381 787 q 201 698 269 775 q 133 505 133 620 q 201 308 133 391 q 381 226 270 226 "},"⁋":{"x_min":0,"x_max":0,"ha":681},"j":{"x_min":-76.046875,"x_max":164,"ha":342,"o":"m 164 870 l 41 870 l 41 1012 l 164 1012 l 164 870 m 164 -80 q 119 -231 164 -184 q -25 -278 75 -278 l -76 -278 l -76 -163 l -40 -163 q 26 -142 11 -163 q 41 -64 41 -121 l 41 736 l 164 736 l 164 -80 "},"Σ":{"x_min":0,"x_max":742,"ha":803,"o":"m 742 -1 l 0 -1 l 0 105 l 388 522 l 22 903 l 22 1012 l 731 1012 l 731 888 l 205 888 l 555 522 l 183 124 l 742 124 l 742 -1 "},"1":{"x_min":212.140625,"x_max":563,"ha":775,"o":"m 563 0 l 434 0 l 434 697 l 212 697 l 212 796 q 379 833 325 796 q 466 986 439 875 l 563 986 l 563 0 "},"›":{"x_min":18,"x_max":758,"ha":776,"o":"m 758 376 l 18 41 l 18 149 l 617 420 l 18 691 l 18 798 l 758 465 l 758 376 "},"<":{"x_min":18,"x_max":758,"ha":776,"o":"m 758 41 l 18 376 l 18 465 l 758 798 l 758 691 l 156 420 l 758 149 l 758 41 "},"£":{"x_min":0,"x_max":689.859375,"ha":785,"o":"m 689 41 q 611 -10 650 5 q 532 -26 571 -26 q 352 15 491 -26 q 237 36 282 36 q 154 23 192 36 q 71 -20 116 11 l 5 76 q 122 196 88 150 q 171 332 171 263 q 143 444 171 384 l 0 444 l 0 513 l 105 513 q 42 735 42 623 q 118 929 42 854 q 350 1010 199 1010 q 567 936 477 1010 q 664 729 664 857 l 664 685 l 540 685 q 493 838 540 780 q 355 896 447 896 q 212 852 258 896 q 173 747 173 815 q 196 628 173 697 q 243 513 213 575 l 459 513 l 459 444 l 273 444 q 291 357 291 399 q 225 194 291 279 q 149 107 206 171 q 222 133 186 125 q 287 142 258 142 q 402 119 331 142 q 506 96 472 96 q 567 105 538 96 q 635 139 595 114 l 689 41 "},"t":{"x_min":0,"x_max":359.015625,"ha":449,"o":"m 359 0 q 305 -5 331 -2 q 257 -8 278 -8 q 142 28 179 -8 q 106 143 106 64 l 106 638 l 0 638 l 0 738 l 106 738 l 106 944 l 227 944 l 227 738 l 359 738 l 359 638 l 227 638 l 227 185 q 242 121 227 140 q 300 101 258 101 q 337 104 323 101 q 359 107 352 107 l 359 0 "},"¬":{"x_min":0.421875,"x_max":692,"ha":787,"o":"m 692 411 l 692 158 l 617 158 l 617 335 l 0 335 l 0 411 l 692 411 "},"λ":{"x_min":-0.46875,"x_max":735,"ha":787,"o":"m 735 -6 q 665 -15 702 -15 q 527 59 579 -15 q 457 213 502 97 l 329 551 l 123 0 l 0 0 l 265 705 q 218 837 241 770 q 113 900 186 900 q 88 898 97 900 l 88 1004 q 149 1011 122 1011 q 292 938 239 1011 q 365 783 319 901 l 593 192 q 636 115 616 135 q 702 96 656 96 l 721 96 q 735 97 730 97 l 735 -6 "},"W":{"x_min":0,"x_max":1238.609375,"ha":1324,"o":"m 1238 1012 l 975 0 l 842 0 l 615 835 l 397 0 l 259 0 l 0 1012 l 133 1012 l 336 202 l 545 1012 l 687 1012 l 903 208 l 1110 1012 l 1238 1012 "},">":{"x_min":18,"x_max":758,"ha":776,"o":"m 758 376 l 18 41 l 18 149 l 617 420 l 18 691 l 18 798 l 758 465 l 758 376 "},"v":{"x_min":0,"x_max":661.5,"ha":746,"o":"m 661 737 l 396 0 l 266 0 l 0 737 l 130 737 l 333 147 l 530 737 l 661 737 "},"τ":{"x_min":0,"x_max":632,"ha":689,"o":"m 632 628 l 374 628 l 374 179 q 380 120 374 137 q 427 92 393 92 q 464 94 438 92 q 494 97 491 97 l 494 0 q 444 -9 472 -5 q 393 -14 417 -14 q 271 67 301 -14 q 254 233 254 117 l 254 628 l 0 628 l 0 739 l 632 739 l 632 628 "},"ξ":{"x_min":0,"x_max":613,"ha":685,"o":"m 613 -37 q 597 -153 613 -96 q 552 -278 581 -211 l 445 -278 q 481 -183 476 -200 q 501 -83 501 -126 q 475 -24 501 -45 q 363 0 443 0 q 317 0 347 0 q 277 0 287 0 q 83 77 166 0 q 0 267 0 155 q 55 432 0 358 q 193 538 106 498 q 92 613 132 562 q 53 730 53 665 q 76 824 53 780 q 140 901 99 867 l 27 901 l 27 1012 l 565 1012 l 565 901 l 372 901 q 239 863 296 901 q 174 745 174 820 q 306 600 174 636 q 521 582 372 582 l 521 479 q 270 455 353 479 q 116 281 116 410 q 162 173 116 217 q 269 120 204 133 q 484 101 377 111 q 613 -37 613 76 "},"&":{"x_min":-3,"x_max":876.25,"ha":972,"o":"m 876 0 l 710 0 l 612 123 q 462 0 543 40 q 300 -42 382 -42 q 165 -7 227 -42 q 61 91 103 26 q 14 186 31 138 q -3 276 -3 234 q 54 433 -3 358 q 243 581 112 508 q 166 688 192 640 q 134 816 134 751 q 210 984 134 922 q 376 1040 278 1040 q 537 987 473 1040 q 610 823 610 927 q 552 666 610 738 q 423 556 506 608 l 610 326 q 637 406 627 361 q 650 493 641 426 l 766 493 q 690 229 766 352 l 876 0 m 494 818 q 459 907 494 876 q 376 939 424 939 q 287 907 324 939 q 250 818 250 875 q 284 713 250 766 q 356 627 307 677 q 468 729 438 681 q 494 818 494 770 m 545 209 l 308 499 q 175 395 218 449 q 132 283 132 341 q 143 222 132 252 q 179 158 155 191 q 326 79 236 79 q 545 209 439 79 "},"Λ":{"x_min":0,"x_max":845.25,"ha":923,"o":"m 845 0 l 705 0 l 417 846 l 140 0 l 0 0 l 349 1012 l 491 1012 l 845 0 "},"I":{"x_min":41,"x_max":177,"ha":287,"o":"m 177 0 l 41 0 l 41 1012 l 177 1012 l 177 0 "},"G":{"x_min":0,"x_max":903,"ha":991,"o":"m 903 0 l 815 0 l 785 135 q 641 14 726 57 q 461 -28 556 -28 q 123 133 254 -28 q 0 499 0 284 q 122 881 0 731 q 476 1043 254 1043 q 749 956 634 1043 q 887 708 872 863 l 756 708 q 654 866 732 806 q 476 926 577 926 q 223 795 315 926 q 139 507 139 677 q 223 224 139 342 q 473 94 317 94 q 698 195 612 94 q 780 434 780 291 l 468 434 l 468 548 l 903 548 l 903 0 "},"ΰ":{"x_min":0,"x_max":605,"ha":711,"o":"m 513 799 l 405 799 l 405 924 l 513 924 l 513 799 m 180 799 l 72 799 l 72 924 l 180 924 l 180 799 m 605 352 q 530 93 605 199 q 302 -24 446 -24 q 74 93 158 -24 q 0 352 0 199 l 0 738 l 124 738 l 124 354 q 166 185 124 257 q 306 98 216 98 q 442 185 394 98 q 482 354 482 257 l 482 738 l 605 738 l 605 352 m 479 1039 l 293 819 l 212 819 l 344 1039 l 479 1039 "},"`":{"x_min":0,"x_max":136.046875,"ha":231,"o":"m 136 699 l 0 699 l 0 861 q 35 975 0 929 q 136 1041 70 1020 l 136 977 q 80 931 93 969 q 68 839 68 893 l 136 839 l 136 699 "},"·":{"x_min":0,"x_max":139,"ha":234,"o":"m 139 585 l 0 585 l 0 738 l 139 738 l 139 585 "},"Υ":{"x_min":0.171875,"x_max":802.75,"ha":871,"o":"m 802 1012 l 472 416 l 472 0 l 335 0 l 335 416 l 0 1012 l 137 1012 l 402 533 l 665 1012 l 802 1012 "},"r":{"x_min":0,"x_max":348.65625,"ha":424,"o":"m 348 621 l 336 621 q 175 569 231 621 q 120 411 120 518 l 120 0 l 0 0 l 0 737 l 114 737 l 114 604 q 200 719 143 685 q 348 753 257 753 l 348 621 "},"x":{"x_min":0,"x_max":661.5,"ha":749,"o":"m 661 0 l 515 0 l 325 285 l 141 0 l 0 0 l 251 378 l 12 737 l 155 737 l 330 473 l 506 737 l 647 737 l 404 380 l 661 0 "},"μ":{"x_min":0,"x_max":683.21875,"ha":732,"o":"m 683 -4 q 616 -14 645 -14 q 488 97 503 -14 q 414 8 461 41 q 307 -24 367 -24 q 203 3 253 -24 q 117 80 153 31 l 117 -278 l 0 -278 l 0 737 l 121 737 l 121 343 q 161 172 121 245 q 302 82 212 82 q 443 177 394 82 q 483 358 483 254 l 483 737 l 604 737 l 604 214 q 610 136 604 159 q 660 92 624 92 q 683 96 670 92 l 683 -4 "},"h":{"x_min":0,"x_max":603,"ha":709,"o":"m 603 472 l 603 0 l 480 0 l 480 454 q 447 590 480 535 q 331 654 407 654 q 183 588 246 654 q 120 436 120 522 l 120 0 l 0 0 l 0 1012 l 120 1012 l 120 633 q 214 727 147 694 q 355 760 281 760 q 541 676 475 760 q 603 472 603 600 "},".":{"x_min":0,"x_max":139,"ha":234,"o":"m 139 0 l 0 0 l 0 151 l 139 151 l 139 0 "},"φ":{"x_min":-1,"x_max":860,"ha":954,"o":"m 486 -279 l 370 -279 l 370 -17 q 99 88 200 -17 q -1 367 -1 193 q 68 625 -1 510 q 278 757 148 757 l 278 646 q 165 536 205 625 q 131 372 131 461 q 189 177 131 253 q 370 92 254 92 l 370 757 q 436 763 417 763 q 466 763 454 763 q 749 657 639 763 q 860 376 860 552 q 756 95 860 208 q 486 -17 652 -17 l 486 -279 m 486 92 l 503 92 q 673 182 611 92 q 731 379 731 264 q 677 567 731 490 q 511 656 616 656 l 486 656 l 486 92 "},";":{"x_min":0,"x_max":139,"ha":234,"o":"m 139 585 l 0 585 l 0 738 l 139 738 l 139 585 m 139 -12 q 102 -133 139 -83 q 0 -206 66 -183 l 0 -138 q 57 -83 42 -123 q 67 0 67 -56 l 0 0 l 0 151 l 139 151 l 139 -12 "},"f":{"x_min":0,"x_max":370,"ha":463,"o":"m 370 637 l 241 637 l 241 0 l 118 0 l 118 637 l 0 637 l 0 737 l 118 737 q 134 934 118 887 q 284 1026 167 1026 q 313 1026 299 1026 q 370 1020 327 1026 l 370 908 q 317 918 338 918 q 251 870 268 918 q 241 780 241 840 l 241 737 l 370 737 l 370 637 "},"“":{"x_min":1,"x_max":341,"ha":444,"o":"m 137 669 l 1 669 l 1 829 q 37 943 1 896 q 137 1010 73 989 l 137 946 q 80 899 94 939 q 66 809 66 860 l 137 809 l 137 669 m 341 669 l 205 669 l 205 829 q 241 943 205 896 q 341 1010 277 989 l 341 946 q 284 899 298 939 q 270 809 270 860 l 341 809 l 341 669 "},"A":{"x_min":0,"x_max":888.8125,"ha":988,"o":"m 888 0 l 741 0 l 637 302 l 246 302 l 140 0 l 0 0 l 368 1012 l 518 1012 l 888 0 m 597 420 l 443 866 l 287 420 l 597 420 "},"6":{"x_min":52,"x_max":724,"ha":776,"o":"m 724 311 q 620 62 724 162 q 392 -31 524 -31 q 159 78 251 -31 q 52 439 52 206 q 174 858 52 711 q 433 985 279 985 q 630 911 548 985 q 718 713 718 832 l 589 713 q 533 829 582 785 q 417 874 484 874 q 262 792 325 874 q 189 516 189 696 q 295 596 235 569 q 419 623 355 623 q 630 539 541 623 q 724 311 724 450 m 591 298 q 529 460 591 399 q 396 515 475 515 q 262 460 317 515 q 202 299 202 401 q 263 137 202 198 q 397 83 318 83 q 531 137 476 83 q 591 298 591 196 "},"‘":{"x_min":1,"x_max":137,"ha":231,"o":"m 137 669 l 1 669 l 1 829 q 37 943 1 896 q 137 1010 73 989 l 137 946 q 80 899 94 939 q 66 809 66 860 l 137 809 l 137 669 "},"ϊ":{"x_min":-68,"x_max":278.34375,"ha":355,"o":"m 278 800 l 170 800 l 170 925 l 278 925 l 278 800 m 40 800 l -68 800 l -68 925 l 40 925 l 40 800 m 278 3 q 228 -10 253 -5 q 178 -15 203 -15 q 83 26 117 -15 q 41 200 41 79 l 41 738 l 164 738 l 164 215 q 168 142 164 157 q 221 102 179 102 q 243 103 234 102 q 278 113 252 104 l 278 3 "},"π":{"x_min":0,"x_max":758.28125,"ha":840,"o":"m 758 -10 l 694 -10 q 565 40 596 -10 q 542 174 542 77 l 542 226 l 542 626 l 218 626 l 218 0 l 95 0 l 95 626 l 0 626 l 0 737 l 758 737 l 758 626 l 663 626 l 663 171 q 682 103 663 117 q 758 90 701 90 l 758 -10 "},"ά":{"x_min":0,"x_max":750,"ha":792,"o":"m 750 -3 q 684 -13 711 -13 q 552 97 574 -13 q 456 7 514 40 q 330 -26 399 -26 q 87 98 182 -26 q 0 369 0 212 q 87 637 0 525 q 330 760 181 760 q 456 728 399 760 q 551 637 513 696 l 551 739 l 671 739 l 671 222 q 679 142 671 168 q 733 95 694 95 q 750 96 744 95 l 750 -3 m 572 371 q 520 562 572 484 q 352 653 460 653 q 187 566 249 653 q 132 379 132 489 q 182 180 132 261 q 351 83 242 83 q 517 176 456 83 q 572 371 572 260 m 592 1040 l 407 820 l 325 820 l 457 1040 l 592 1040 "},"O":{"x_min":0,"x_max":939,"ha":1036,"o":"m 476 1042 q 817 883 688 1042 q 939 512 939 735 q 817 136 939 287 q 472 -26 688 -26 q 123 130 255 -26 q 0 504 0 279 q 125 880 0 729 q 476 1042 258 1042 m 471 98 q 717 225 626 98 q 799 504 799 340 q 718 783 799 670 q 471 913 627 913 q 222 785 314 913 q 139 504 139 671 q 222 224 139 339 q 471 98 313 98 "},"n":{"x_min":0,"x_max":603,"ha":709,"o":"m 603 463 l 603 0 l 480 0 l 480 454 q 444 592 480 537 q 324 656 402 656 q 174 585 235 656 q 114 421 114 514 l 114 0 l 0 0 l 0 739 l 114 739 l 114 630 q 213 728 146 693 q 352 764 280 764 q 541 675 474 764 q 603 463 603 593 "},"3":{"x_min":53,"x_max":723,"ha":776,"o":"m 723 284 q 623 55 723 141 q 392 -25 530 -25 q 153 52 243 -25 q 53 308 53 140 l 181 308 q 240 147 181 202 q 388 96 296 96 q 529 140 475 96 q 591 280 591 190 q 500 428 591 390 q 317 454 442 454 l 317 565 q 477 584 432 565 q 554 719 554 617 q 505 835 554 791 q 388 879 457 879 q 250 824 301 879 q 199 661 199 769 l 76 661 q 163 909 76 821 q 379 991 244 991 q 591 920 503 991 q 687 723 687 843 q 655 607 687 656 q 566 524 624 558 q 682 434 642 499 q 723 284 723 369 "},"9":{"x_min":52,"x_max":724,"ha":776,"o":"m 724 524 q 607 94 724 241 q 355 -32 506 -32 q 147 47 237 -32 q 58 243 58 126 l 187 243 q 241 129 187 176 q 366 82 295 82 q 515 161 457 82 q 585 439 585 255 q 356 333 491 333 q 128 431 212 333 q 52 649 52 520 q 132 880 52 785 q 375 986 222 986 q 646 841 555 986 q 724 524 724 719 m 378 448 q 523 513 469 448 q 572 658 572 573 q 523 805 572 744 q 378 874 469 874 q 234 809 285 874 q 184 658 184 745 q 231 513 184 571 q 378 448 284 448 "},"l":{"x_min":41,"x_max":164,"ha":274,"o":"m 164 0 l 41 0 l 41 1012 l 164 1012 l 164 0 "},"¤":{"x_min":39.46875,"x_max":714.15625,"ha":808,"o":"m 714 304 l 636 225 l 501 362 q 375 332 448 332 q 251 362 304 332 l 117 225 l 39 304 l 174 441 q 147 552 147 492 q 180 673 147 620 l 39 818 l 117 897 l 262 748 q 314 767 285 760 q 376 774 344 774 q 438 767 409 774 q 490 748 467 760 l 636 897 l 714 818 l 573 675 q 599 618 591 648 q 608 552 608 587 q 579 441 608 491 l 714 304 m 376 682 q 274 643 311 682 q 238 551 238 604 q 274 460 238 498 q 375 422 310 422 q 477 460 440 422 q 514 552 514 499 q 480 641 514 605 q 376 682 441 682 "},"κ":{"x_min":0,"x_max":619.171875,"ha":665,"o":"m 619 0 l 472 0 l 220 384 l 121 288 l 121 0 l 0 0 l 0 737 l 121 737 l 121 445 l 424 737 l 583 737 l 306 466 l 619 0 "},"4":{"x_min":48,"x_max":729,"ha":777,"o":"m 729 243 l 591 243 l 591 0 l 467 0 l 467 243 l 48 243 l 48 367 l 465 958 l 591 958 l 591 354 l 729 354 l 729 243 m 467 354 l 467 794 l 160 354 l 467 354 "},"p":{"x_min":0,"x_max":671,"ha":770,"o":"m 671 363 q 586 95 671 205 q 342 -24 494 -24 q 118 88 201 -24 l 118 -278 l 0 -278 l 0 739 l 118 739 l 118 633 q 215 726 156 691 q 344 761 274 761 q 586 635 494 761 q 671 363 671 522 m 546 370 q 491 560 546 481 q 323 651 428 651 q 159 559 219 651 q 106 366 106 478 q 159 176 106 253 q 326 85 220 85 q 492 177 432 85 q 546 370 546 258 "},"‡":{"x_min":0,"x_max":762,"ha":818,"o":"m 449 238 l 449 0 l 313 0 l 313 236 l 0 236 l 0 360 l 313 360 l 313 682 l 0 682 l 0 804 l 313 804 l 313 1014 l 449 1014 l 449 804 l 762 804 l 762 682 l 449 682 l 449 360 l 762 360 l 762 238 l 449 238 "},"ψ":{"x_min":0,"x_max":792,"ha":889,"o":"m 456 -278 l 335 -278 l 335 -15 q 85 101 177 -15 q 0 377 0 209 l 0 739 l 131 739 l 131 379 q 179 194 131 274 q 335 97 238 97 l 335 922 l 456 922 l 456 97 q 610 194 552 97 q 661 381 661 277 l 661 741 l 792 741 l 792 380 q 706 103 792 212 q 456 -12 614 -12 l 456 -278 "},"η":{"x_min":0,"x_max":684,"ha":794,"o":"m 684 -278 l 561 -278 l 561 453 q 529 587 561 535 q 416 650 491 650 q 266 579 331 650 q 202 420 202 509 l 202 0 l 79 0 l 79 489 q 70 588 79 562 q 0 644 54 644 l 0 741 q 66 755 36 755 q 155 721 121 755 q 196 630 189 687 q 291 726 230 692 q 426 761 353 761 q 609 692 534 761 q 684 516 684 624 l 684 -278 "}}}
